<svg width="488" height="164" viewBox="0 0 488 164" fill="none" xmlns="http://www.w3.org/2000/svg">
<circle cx="66" cy="66" r="66" fill="#F7FDFD"/>
<circle cx="66" cy="66" r="66" fill="url(#paint0_radial_7_2)"/>
<circle cx="66" cy="66" r="66" fill="url(#paint1_radial_7_2)" fill-opacity="0.06"/>
<circle cx="66" cy="66" r="66" stroke="#E4E4ED"/>
<path d="M31.592 99V96.756C32.952 96.756 33.9947 96.3933 34.72 95.668C35.4453 94.9427 36.0347 93.9453 36.488 92.676C36.9867 91.4067 37.5533 89.9333 38.188 88.256L52.196 50.108H53.828L68.992 88.8C69.3547 89.752 69.7627 90.976 70.216 92.472C70.6693 93.968 70.8507 95.2373 70.76 96.28C71.5307 96.2347 72.3013 96.1893 73.072 96.144C73.8427 96.0987 74.6133 96.0533 75.384 96.008V99H59.812V96.756C61.5347 96.7107 62.668 96.3253 63.212 95.6C63.756 94.8747 63.96 94.0133 63.824 93.016C63.688 92.0187 63.4613 91.112 63.144 90.296L60.764 83.904L43.084 84.312L40.704 91.588C40.3867 92.676 40.092 93.5373 39.82 94.172C39.5933 94.8067 39.3213 95.5093 39.004 96.28C39.9107 96.2347 40.7947 96.1893 41.656 96.144C42.5627 96.0987 43.4467 96.0533 44.308 96.008V99H31.592ZM44.104 81.388H59.812L54.984 68.4C54.4853 66.9947 53.964 65.612 53.42 64.252C52.9213 62.8467 52.4227 61.4413 51.924 60.036H51.788C51.3347 61.3053 50.8587 62.5747 50.36 63.844C49.9067 65.1133 49.4307 66.4053 48.932 67.72L44.104 81.388Z" fill="#BA0500"/>
<path d="M103.942 99.68C101.948 95.1467 99.9304 90.636 97.8904 86.148C95.8504 81.6147 93.8557 77.036 91.9064 72.412C91.2717 70.9613 90.6371 69.5107 90.0024 68.06C89.4131 66.564 88.8237 65.068 88.2344 63.572C87.6904 62.076 87.1237 60.58 86.5344 59.084C86.5344 59.5827 86.5117 60.0813 86.4664 60.58C86.4664 61.0787 86.4664 61.5773 86.4664 62.076C86.4211 63.708 86.3531 65.68 86.2624 67.992C86.2171 70.2587 86.1491 72.7067 86.0584 75.336C85.9677 77.92 85.8997 80.5267 85.8544 83.156C85.8091 85.74 85.7637 88.188 85.7184 90.5C85.6731 91.4973 85.6277 92.4947 85.5824 93.492C85.5824 94.4893 85.5371 95.4187 85.4464 96.28C86.3077 96.2347 87.1464 96.1893 87.9624 96.144C88.8237 96.0987 89.6851 96.0533 90.5464 96.008V99H77.5584V96.756C78.9637 96.7107 79.9837 96.416 80.6184 95.872C81.2984 95.2827 81.7291 94.512 81.9104 93.56C82.0917 92.608 82.2051 91.588 82.2504 90.5L83.5424 59.492C83.5877 58.5853 83.6104 57.6787 83.6104 56.772C83.6557 55.8653 83.7011 54.9813 83.7464 54.12C82.9304 54.1653 82.1144 54.2107 81.2984 54.256C80.4824 54.256 79.6664 54.2787 78.8504 54.324V51.4H89.2544L100.95 78.396C101.54 79.756 102.106 81.116 102.65 82.476C103.24 83.836 103.829 85.196 104.418 86.556C105.053 87.916 105.665 89.2987 106.254 90.704H106.39C106.889 89.48 107.478 88.0293 108.158 86.352C108.838 84.6293 109.405 83.156 109.858 81.932C111.853 76.9453 113.916 71.9587 116.046 66.972C118.222 61.94 120.353 56.7493 122.438 51.4H132.502V53.644C131.369 53.5987 130.44 53.8253 129.714 54.324C128.989 54.7773 128.468 55.548 128.15 56.636C127.833 57.724 127.72 59.1973 127.81 61.056L129.578 91.996C129.669 92.7667 129.714 93.5147 129.714 94.24C129.714 94.9653 129.714 95.6227 129.714 96.212C130.53 96.1667 131.346 96.144 132.162 96.144C133.024 96.0987 133.862 96.0533 134.678 96.008V99H119.446V96.756C120.852 96.7107 121.894 96.3707 122.574 95.736C123.254 95.1013 123.662 94.1947 123.798 93.016C123.98 91.8373 124.025 90.3867 123.934 88.664L122.574 66.224C122.529 65.4987 122.484 64.7733 122.438 64.048C122.393 63.3227 122.348 62.5973 122.302 61.872C122.257 61.1467 122.212 60.4213 122.166 59.696C122.03 60.0133 121.872 60.3533 121.69 60.716C121.554 61.0787 121.418 61.464 121.282 61.872L105.982 99.68H103.942Z" fill="#0070C4"/>
<path d="M140.728 99V96.756C142.451 96.7107 143.63 96.3253 144.264 95.6C144.899 94.8293 145.239 93.8093 145.284 92.54C145.375 91.2253 145.42 89.7293 145.42 88.052V59.492C145.42 58.268 145.443 57.2253 145.488 56.364C145.534 55.4573 145.579 54.7093 145.624 54.12C144.808 54.1653 143.992 54.2107 143.176 54.256C142.36 54.3013 141.544 54.3467 140.728 54.392V51.4C143.222 51.3547 145.715 51.332 148.208 51.332C150.747 51.2867 153.376 51.264 156.096 51.264C161.355 51.264 165.458 52.1933 168.404 54.052C171.396 55.9107 172.847 58.8573 172.756 62.892C172.756 64.3427 172.326 65.7933 171.464 67.244C170.648 68.6947 169.402 69.9867 167.724 71.12C166.092 72.208 164.03 72.9787 161.536 73.432V73.568C166.523 73.568 170.286 74.724 172.824 77.036C175.363 79.3027 176.632 82.1813 176.632 85.672C176.632 88.4373 175.93 90.8173 174.524 92.812C173.119 94.8067 171.215 96.348 168.812 97.436C166.41 98.4787 163.667 99 160.584 99H140.728ZM151.132 96.28C151.858 96.3253 152.719 96.3707 153.716 96.416C154.759 96.416 155.711 96.416 156.572 96.416C157.479 96.416 158.068 96.416 158.34 96.416C161.831 96.416 164.642 95.5547 166.772 93.832C168.948 92.064 170.036 89.48 170.036 86.08C170.036 83.3147 169.492 81.1613 168.404 79.62C167.316 78.0787 165.888 76.9907 164.12 76.356C162.352 75.7213 160.426 75.404 158.34 75.404C156.98 75.404 155.734 75.4267 154.6 75.472C153.512 75.472 152.424 75.5173 151.336 75.608V90.976C151.336 92.2 151.314 93.2427 151.268 94.104C151.268 94.9653 151.223 95.6907 151.132 96.28ZM151.336 72.956L156.3 72.82C158.884 72.7747 160.924 72.2533 162.42 71.256C163.916 70.2133 164.982 68.9213 165.616 67.38C166.296 65.8387 166.614 64.2293 166.568 62.552C166.523 60.104 165.956 58.2453 164.868 56.976C163.826 55.7067 162.534 54.8453 160.992 54.392C159.451 53.9387 157.932 53.712 156.436 53.712C154.94 53.712 153.83 53.916 153.104 54.324C152.379 54.732 151.903 55.412 151.676 56.364C151.45 57.316 151.336 58.6307 151.336 60.308V72.956Z" fill="#5A9CD7"/>
<path d="M47.48 153.64C44.8133 153.64 42.4533 153.08 40.4 151.96C38.3467 150.84 36.7467 149.227 35.6 147.12C34.4533 145.013 33.88 142.507 33.88 139.6C33.88 137.707 34.16 135.867 34.72 134.08C35.3067 132.267 36.1733 130.627 37.32 129.16C38.4933 127.693 39.9467 126.533 41.68 125.68C43.44 124.8 45.48 124.36 47.8 124.36C48.76 124.36 49.7333 124.453 50.72 124.64C51.7067 124.8 52.6533 125.053 53.56 125.4C54.4933 125.72 55.3333 126.107 56.08 126.56L55.92 124.64H58.12V133.8H56.68C56.5733 132.12 56.12 130.707 55.32 129.56C54.5467 128.387 53.5333 127.493 52.28 126.88C51.0267 126.267 49.6267 125.96 48.08 125.96C46.6667 125.96 45.3333 126.28 44.08 126.92C42.8533 127.533 41.76 128.413 40.8 129.56C39.8667 130.68 39.1333 132.013 38.6 133.56C38.0667 135.107 37.8 136.813 37.8 138.68C37.8 141.187 38.2533 143.427 39.16 145.4C40.0667 147.373 41.32 148.92 42.92 150.04C44.5467 151.16 46.4133 151.72 48.52 151.72C49.24 151.72 49.9867 151.653 50.76 151.52C51.56 151.387 52.3467 151.173 53.12 150.88C53.92 150.56 54.6667 150.173 55.36 149.72V144.84C55.36 144.2 55.36 143.56 55.36 142.92C55.36 142.253 55.36 141.6 55.36 140.96C54.9067 140.987 54.44 141.013 53.96 141.04C53.48 141.067 53.0133 141.093 52.56 141.12V139.36H61.6V140.68C60.8533 140.68 60.28 140.88 59.88 141.28C59.48 141.653 59.2 142.12 59.04 142.68C58.88 143.213 58.7867 143.747 58.76 144.28C58.7333 144.787 58.72 145.173 58.72 145.44V151.56H57.64C57.2133 151.56 56.6267 151.64 55.88 151.8C55.1333 151.96 54.28 152.227 53.32 152.6C52.4933 152.92 51.5333 153.173 50.44 153.36C49.3467 153.547 48.36 153.64 47.48 153.64ZM73.8697 153.64C72.0297 153.64 70.363 153.213 68.8697 152.36C67.403 151.48 66.243 150.253 65.3897 148.68C64.5364 147.08 64.1097 145.2 64.1097 143.04C64.1097 141.173 64.523 139.427 65.3497 137.8C66.203 136.173 67.3897 134.867 68.9097 133.88C70.4297 132.867 72.1897 132.36 74.1897 132.36C75.3097 132.36 76.3497 132.547 77.3097 132.92C78.2964 133.267 79.163 133.813 79.9097 134.56C80.6564 135.28 81.243 136.2 81.6697 137.32C82.0964 138.413 82.3097 139.707 82.3097 141.2L68.2297 141.44C68.2297 143.467 68.443 145.253 68.8697 146.8C69.323 148.32 70.043 149.507 71.0297 150.36C72.0164 151.187 73.283 151.6 74.8297 151.6C75.6564 151.6 76.4964 151.453 77.3497 151.16C78.2297 150.867 79.043 150.467 79.7897 149.96C80.5364 149.453 81.1364 148.893 81.5897 148.28L82.5497 149.08C81.8297 150.2 80.963 151.093 79.9497 151.76C78.9364 152.427 77.8964 152.907 76.8297 153.2C75.763 153.493 74.7764 153.64 73.8697 153.64ZM68.3497 139.76H78.5497C78.5497 138.8 78.403 137.88 78.1097 137C77.843 136.093 77.3897 135.36 76.7497 134.8C76.1097 134.213 75.2697 133.92 74.2297 133.92C72.683 133.92 71.3897 134.387 70.3497 135.32C69.3364 136.227 68.6697 137.707 68.3497 139.76ZM85.8694 153V151.8C86.696 151.8 87.2694 151.6 87.5894 151.2C87.9094 150.773 88.096 150.2 88.1494 149.48C88.2027 148.733 88.2294 147.88 88.2294 146.92L88.2694 137.8C88.2694 137.373 88.2694 136.947 88.2694 136.52C88.296 136.093 88.3494 135.653 88.4294 135.2C87.9494 135.227 87.4694 135.253 86.9894 135.28C86.536 135.307 86.0694 135.333 85.5894 135.36V133.68C86.7627 133.68 87.6427 133.627 88.2294 133.52C88.8427 133.413 89.296 133.28 89.5894 133.12C89.8827 132.96 90.1227 132.787 90.3094 132.6H91.4694C91.496 132.787 91.5094 133 91.5094 133.24C91.536 133.48 91.5627 133.747 91.5894 134.04C91.616 134.333 91.6294 134.667 91.6294 135.04C92.216 134.533 92.856 134.08 93.5494 133.68C94.2694 133.28 95.016 132.96 95.7894 132.72C96.5894 132.48 97.376 132.36 98.1494 132.36C100.469 132.36 102.163 133.093 103.229 134.56C104.296 136 104.829 138.253 104.829 141.32V148.76C104.829 149.293 104.816 149.773 104.789 150.2C104.789 150.6 104.749 151.027 104.669 151.48C105.096 151.453 105.509 151.44 105.909 151.44C106.336 151.413 106.763 151.387 107.189 151.36V153H99.0294V151.8C99.856 151.8 100.429 151.6 100.749 151.2C101.069 150.773 101.256 150.2 101.309 149.48C101.363 148.733 101.389 147.88 101.389 146.92V141.32C101.363 139.027 100.976 137.293 100.229 136.12C99.5094 134.947 98.3627 134.373 96.7894 134.4C95.8294 134.427 94.8827 134.68 93.9494 135.16C93.0427 135.64 92.2827 136.253 91.6694 137C91.696 137.213 91.7094 137.453 91.7094 137.72C91.7094 137.987 91.7094 138.267 91.7094 138.56L91.6694 148.76C91.6694 149.293 91.656 149.773 91.6294 150.2C91.6294 150.6 91.5894 151.027 91.5094 151.48C91.936 151.453 92.3494 151.44 92.7494 151.44C93.176 151.413 93.6027 151.387 94.0294 151.36V153H85.8694ZM119.846 153.64C118.006 153.64 116.34 153.213 114.846 152.36C113.38 151.48 112.22 150.253 111.366 148.68C110.513 147.08 110.086 145.2 110.086 143.04C110.086 141.173 110.5 139.427 111.326 137.8C112.18 136.173 113.366 134.867 114.886 133.88C116.406 132.867 118.166 132.36 120.166 132.36C121.286 132.36 122.326 132.547 123.286 132.92C124.273 133.267 125.14 133.813 125.886 134.56C126.633 135.28 127.22 136.2 127.646 137.32C128.073 138.413 128.286 139.707 128.286 141.2L114.206 141.44C114.206 143.467 114.42 145.253 114.846 146.8C115.3 148.32 116.02 149.507 117.006 150.36C117.993 151.187 119.26 151.6 120.806 151.6C121.633 151.6 122.473 151.453 123.326 151.16C124.206 150.867 125.02 150.467 125.766 149.96C126.513 149.453 127.113 148.893 127.566 148.28L128.526 149.08C127.806 150.2 126.94 151.093 125.926 151.76C124.913 152.427 123.873 152.907 122.806 153.2C121.74 153.493 120.753 153.64 119.846 153.64ZM114.326 139.76H124.526C124.526 138.8 124.38 137.88 124.086 137C123.82 136.093 123.366 135.36 122.726 134.8C122.086 134.213 121.246 133.92 120.206 133.92C118.66 133.92 117.366 134.387 116.326 135.32C115.313 136.227 114.646 137.707 114.326 139.76ZM131.846 151.8C132.673 151.8 133.246 151.6 133.566 151.2C133.886 150.773 134.073 150.2 134.126 149.48C134.179 148.733 134.206 147.88 134.206 146.92V137.8C134.206 137.373 134.206 136.947 134.206 136.52C134.233 136.093 134.286 135.653 134.366 135.2C133.886 135.227 133.406 135.253 132.926 135.28C132.473 135.28 132.006 135.293 131.526 135.32V133.68H132.766C133.913 133.68 134.699 133.573 135.126 133.36C135.579 133.12 135.953 132.867 136.246 132.6H137.406C137.459 133.027 137.499 133.56 137.526 134.2C137.553 134.813 137.579 135.6 137.606 136.56C138.006 135.893 138.553 135.24 139.246 134.6C139.939 133.96 140.713 133.427 141.566 133C142.446 132.573 143.366 132.36 144.326 132.36C145.073 132.36 145.726 132.56 146.286 132.96C146.846 133.36 147.126 134 147.126 134.88C147.126 135.093 147.059 135.36 146.926 135.68C146.793 135.973 146.579 136.24 146.286 136.48C145.993 136.693 145.606 136.8 145.126 136.8C144.539 136.773 144.073 136.547 143.726 136.12C143.379 135.667 143.246 135.147 143.326 134.56C142.659 134.533 141.966 134.707 141.246 135.08C140.553 135.453 139.899 135.973 139.286 136.64C138.673 137.28 138.126 138.04 137.646 138.92L137.686 148.76C137.686 149.293 137.673 149.773 137.646 150.2C137.646 150.6 137.606 151.027 137.526 151.48C137.953 151.453 138.366 151.44 138.766 151.44C139.193 151.413 139.619 151.387 140.046 151.36V153H131.846V151.8ZM161.037 153C160.957 152.547 160.904 152.147 160.877 151.8C160.851 151.453 160.811 151.093 160.757 150.72C159.851 151.627 158.864 152.347 157.797 152.88C156.757 153.387 155.651 153.64 154.477 153.64C152.451 153.64 150.944 153.187 149.957 152.28C148.971 151.347 148.477 150.213 148.477 148.88C148.477 147.653 148.851 146.6 149.597 145.72C150.371 144.813 151.357 144.08 152.557 143.52C153.784 142.933 155.104 142.507 156.517 142.24C157.957 141.947 159.344 141.813 160.677 141.84V139.36C160.677 138.427 160.597 137.547 160.437 136.72C160.277 135.893 159.931 135.213 159.397 134.68C158.864 134.147 158.011 133.867 156.837 133.84C156.064 133.813 155.264 133.96 154.437 134.28C153.637 134.6 153.051 135.147 152.677 135.92C152.891 136.133 153.024 136.387 153.077 136.68C153.157 136.947 153.197 137.2 153.197 137.44C153.197 137.76 153.064 138.133 152.797 138.56C152.531 138.96 152.064 139.147 151.397 139.12C150.837 139.12 150.411 138.933 150.117 138.56C149.824 138.16 149.677 137.693 149.677 137.16C149.677 136.253 150.011 135.44 150.677 134.72C151.371 134 152.317 133.427 153.517 133C154.717 132.573 156.077 132.36 157.597 132.36C159.837 132.36 161.491 132.96 162.557 134.16C163.624 135.333 164.144 137.2 164.117 139.76C164.117 140.747 164.117 141.747 164.117 142.76C164.117 143.747 164.104 144.747 164.077 145.76C164.077 146.747 164.077 147.747 164.077 148.76C164.077 149.187 164.064 149.613 164.037 150.04C164.011 150.467 163.971 150.947 163.917 151.48C164.397 151.453 164.864 151.427 165.317 151.4C165.797 151.373 166.277 151.347 166.757 151.32V153H161.037ZM160.677 143.2C159.771 143.227 158.811 143.347 157.797 143.56C156.811 143.747 155.891 144.04 155.037 144.44C154.211 144.84 153.531 145.373 152.997 146.04C152.491 146.68 152.251 147.467 152.277 148.4C152.331 149.387 152.651 150.133 153.237 150.64C153.851 151.12 154.571 151.36 155.397 151.36C156.491 151.36 157.437 151.16 158.237 150.76C159.064 150.333 159.877 149.747 160.677 149C160.651 148.707 160.637 148.387 160.637 148.04C160.637 147.693 160.637 147.333 160.637 146.96C160.637 146.827 160.637 146.4 160.637 145.68C160.664 144.96 160.677 144.133 160.677 143.2ZM169.102 151.8C169.929 151.8 170.502 151.6 170.822 151.2C171.142 150.773 171.329 150.2 171.382 149.48C171.436 148.733 171.462 147.88 171.462 146.92V128C171.462 127.573 171.462 127.173 171.462 126.8C171.489 126.4 171.529 125.933 171.582 125.4C171.102 125.427 170.622 125.453 170.142 125.48C169.689 125.507 169.222 125.533 168.742 125.56V123.88C169.916 123.88 170.822 123.827 171.462 123.72C172.129 123.613 172.622 123.48 172.942 123.32C173.289 123.16 173.556 122.987 173.742 122.8H174.902L174.942 148.76C174.942 149.293 174.929 149.773 174.902 150.2C174.876 150.6 174.822 151.027 174.742 151.48C175.169 151.453 175.582 151.44 175.982 151.44C176.409 151.413 176.836 151.387 177.262 151.36V153H169.102V151.8ZM213.468 133.92C213.202 131.413 212.322 129.467 210.828 128.08C209.362 126.693 207.468 126 205.148 126C203.735 126 202.402 126.307 201.148 126.92C199.922 127.507 198.842 128.36 197.908 129.48C196.975 130.6 196.242 131.947 195.708 133.52C195.175 135.093 194.908 136.867 194.908 138.84C194.908 141.347 195.388 143.56 196.348 145.48C197.308 147.4 198.602 148.893 200.228 149.96C201.855 151.027 203.655 151.56 205.628 151.56C207.362 151.56 209.068 151.173 210.748 150.4C212.428 149.6 213.802 148.453 214.868 146.96L215.908 147.8C214.762 149.373 213.522 150.587 212.188 151.44C210.855 152.293 209.522 152.867 208.188 153.16C206.882 153.48 205.682 153.64 204.588 153.64C202.588 153.64 200.748 153.28 199.068 152.56C197.415 151.84 195.975 150.84 194.748 149.56C193.548 148.253 192.615 146.747 191.948 145.04C191.308 143.307 190.988 141.44 190.988 139.44C190.988 137.547 191.268 135.707 191.828 133.92C192.415 132.133 193.282 130.52 194.428 129.08C195.575 127.64 197.015 126.493 198.748 125.64C200.508 124.787 202.548 124.36 204.868 124.36C206.362 124.36 207.775 124.56 209.108 124.96C210.442 125.36 211.722 125.973 212.948 126.8L212.748 124.64H214.908V133.92H213.468ZM228.797 153.64C226.931 153.64 225.237 153.213 223.717 152.36C222.197 151.48 220.984 150.28 220.077 148.76C219.197 147.213 218.757 145.453 218.757 143.48C218.757 141.373 219.197 139.48 220.077 137.8C220.957 136.12 222.157 134.8 223.677 133.84C225.197 132.853 226.904 132.36 228.797 132.36C230.664 132.36 232.357 132.813 233.877 133.72C235.397 134.6 236.611 135.8 237.517 137.32C238.424 138.84 238.877 140.573 238.877 142.52C238.877 144.573 238.424 146.453 237.517 148.16C236.637 149.84 235.437 151.173 233.917 152.16C232.397 153.147 230.691 153.64 228.797 153.64ZM229.117 152.04C230.531 152.04 231.651 151.64 232.477 150.84C233.304 150.04 233.891 149 234.237 147.72C234.611 146.44 234.797 145.093 234.797 143.68C234.797 142.48 234.677 141.307 234.437 140.16C234.224 138.987 233.877 137.933 233.397 137C232.917 136.04 232.291 135.28 231.517 134.72C230.771 134.16 229.864 133.88 228.797 133.88C227.411 133.88 226.277 134.28 225.397 135.08C224.517 135.88 223.864 136.92 223.437 138.2C223.037 139.48 222.837 140.853 222.837 142.32C222.837 143.973 223.064 145.547 223.517 147.04C223.971 148.507 224.664 149.707 225.597 150.64C226.531 151.573 227.704 152.04 229.117 152.04ZM242.276 153V151.8C243.102 151.8 243.676 151.6 243.996 151.2C244.316 150.773 244.502 150.2 244.556 149.48C244.609 148.733 244.636 147.88 244.636 146.92L244.676 137.8C244.676 137.373 244.676 136.947 244.676 136.52C244.702 136.093 244.756 135.653 244.836 135.2C244.356 135.227 243.876 135.253 243.396 135.28C242.942 135.307 242.476 135.333 241.996 135.36V133.68C243.169 133.68 244.049 133.627 244.636 133.52C245.249 133.413 245.702 133.28 245.996 133.12C246.289 132.96 246.529 132.787 246.716 132.6H247.876C247.902 132.787 247.916 133 247.916 133.24C247.942 133.48 247.969 133.747 247.996 134.04C248.022 134.333 248.036 134.667 248.036 135.04C248.622 134.533 249.262 134.08 249.956 133.68C250.676 133.28 251.422 132.96 252.196 132.72C252.996 132.48 253.782 132.36 254.556 132.36C256.876 132.36 258.569 133.093 259.636 134.56C260.702 136 261.236 138.253 261.236 141.32V148.76C261.236 149.293 261.222 149.773 261.196 150.2C261.196 150.6 261.156 151.027 261.076 151.48C261.502 151.453 261.916 151.44 262.316 151.44C262.742 151.413 263.169 151.387 263.596 151.36V153H255.436V151.8C256.262 151.8 256.836 151.6 257.156 151.2C257.476 150.773 257.662 150.2 257.716 149.48C257.769 148.733 257.796 147.88 257.796 146.92V141.32C257.769 139.027 257.382 137.293 256.636 136.12C255.916 134.947 254.769 134.373 253.196 134.4C252.236 134.427 251.289 134.68 250.356 135.16C249.449 135.64 248.689 136.253 248.076 137C248.102 137.213 248.116 137.453 248.116 137.72C248.116 137.987 248.116 138.267 248.116 138.56L248.076 148.76C248.076 149.293 248.062 149.773 248.036 150.2C248.036 150.6 247.996 151.027 247.916 151.48C248.342 151.453 248.756 151.44 249.156 151.44C249.582 151.413 250.009 151.387 250.436 151.36V153H242.276ZM273.741 153.64C273.128 153.64 272.501 153.547 271.861 153.36C271.221 153.2 270.621 152.867 270.061 152.36C269.528 151.853 269.101 151.12 268.781 150.16C268.461 149.173 268.301 147.88 268.301 146.28L268.381 134.68L265.301 134.72V133C265.994 132.973 266.701 132.72 267.421 132.24C268.141 131.733 268.781 131.053 269.341 130.2C269.928 129.347 270.328 128.413 270.541 127.4H271.901V133H278.621V134.56L271.901 134.64L271.821 145.76C271.821 146.96 271.914 147.987 272.101 148.84C272.314 149.667 272.648 150.293 273.101 150.72C273.554 151.147 274.141 151.36 274.861 151.36C275.608 151.36 276.301 151.147 276.941 150.72C277.608 150.293 278.194 149.707 278.701 148.96L279.781 149.84C279.194 150.72 278.608 151.413 278.021 151.92C277.461 152.427 276.914 152.8 276.381 153.04C275.848 153.307 275.354 153.467 274.901 153.52C274.448 153.6 274.061 153.64 273.741 153.64ZM281.69 151.8C282.516 151.8 283.09 151.6 283.41 151.2C283.73 150.773 283.916 150.2 283.97 149.48C284.023 148.733 284.05 147.88 284.05 146.92V137.8C284.05 137.373 284.05 136.947 284.05 136.52C284.076 136.093 284.13 135.653 284.21 135.2C283.73 135.227 283.25 135.253 282.77 135.28C282.316 135.28 281.85 135.293 281.37 135.32V133.68H282.61C283.756 133.68 284.543 133.573 284.97 133.36C285.423 133.12 285.796 132.867 286.09 132.6H287.25C287.303 133.027 287.343 133.56 287.37 134.2C287.396 134.813 287.423 135.6 287.45 136.56C287.85 135.893 288.396 135.24 289.09 134.6C289.783 133.96 290.556 133.427 291.41 133C292.29 132.573 293.21 132.36 294.17 132.36C294.916 132.36 295.57 132.56 296.13 132.96C296.69 133.36 296.97 134 296.97 134.88C296.97 135.093 296.903 135.36 296.77 135.68C296.636 135.973 296.423 136.24 296.13 136.48C295.836 136.693 295.45 136.8 294.97 136.8C294.383 136.773 293.916 136.547 293.57 136.12C293.223 135.667 293.09 135.147 293.17 134.56C292.503 134.533 291.81 134.707 291.09 135.08C290.396 135.453 289.743 135.973 289.13 136.64C288.516 137.28 287.97 138.04 287.49 138.92L287.53 148.76C287.53 149.293 287.516 149.773 287.49 150.2C287.49 150.6 287.45 151.027 287.37 151.48C287.796 151.453 288.21 151.44 288.61 151.44C289.036 151.413 289.463 151.387 289.89 151.36V153H281.69V151.8ZM310.881 153C310.801 152.547 310.748 152.147 310.721 151.8C310.694 151.453 310.654 151.093 310.601 150.72C309.694 151.627 308.708 152.347 307.641 152.88C306.601 153.387 305.494 153.64 304.321 153.64C302.294 153.64 300.788 153.187 299.801 152.28C298.814 151.347 298.321 150.213 298.321 148.88C298.321 147.653 298.694 146.6 299.441 145.72C300.214 144.813 301.201 144.08 302.401 143.52C303.628 142.933 304.948 142.507 306.361 142.24C307.801 141.947 309.188 141.813 310.521 141.84V139.36C310.521 138.427 310.441 137.547 310.281 136.72C310.121 135.893 309.774 135.213 309.241 134.68C308.708 134.147 307.854 133.867 306.681 133.84C305.908 133.813 305.108 133.96 304.281 134.28C303.481 134.6 302.894 135.147 302.521 135.92C302.734 136.133 302.868 136.387 302.921 136.68C303.001 136.947 303.041 137.2 303.041 137.44C303.041 137.76 302.908 138.133 302.641 138.56C302.374 138.96 301.908 139.147 301.241 139.12C300.681 139.12 300.254 138.933 299.961 138.56C299.668 138.16 299.521 137.693 299.521 137.16C299.521 136.253 299.854 135.44 300.521 134.72C301.214 134 302.161 133.427 303.361 133C304.561 132.573 305.921 132.36 307.441 132.36C309.681 132.36 311.334 132.96 312.401 134.16C313.468 135.333 313.988 137.2 313.961 139.76C313.961 140.747 313.961 141.747 313.961 142.76C313.961 143.747 313.948 144.747 313.921 145.76C313.921 146.747 313.921 147.747 313.921 148.76C313.921 149.187 313.908 149.613 313.881 150.04C313.854 150.467 313.814 150.947 313.761 151.48C314.241 151.453 314.708 151.427 315.161 151.4C315.641 151.373 316.121 151.347 316.601 151.32V153H310.881ZM310.521 143.2C309.614 143.227 308.654 143.347 307.641 143.56C306.654 143.747 305.734 144.04 304.881 144.44C304.054 144.84 303.374 145.373 302.841 146.04C302.334 146.68 302.094 147.467 302.121 148.4C302.174 149.387 302.494 150.133 303.081 150.64C303.694 151.12 304.414 151.36 305.241 151.36C306.334 151.36 307.281 151.16 308.081 150.76C308.908 150.333 309.721 149.747 310.521 149C310.494 148.707 310.481 148.387 310.481 148.04C310.481 147.693 310.481 147.333 310.481 146.96C310.481 146.827 310.481 146.4 310.481 145.68C310.508 144.96 310.521 144.133 310.521 143.2ZM329.106 153.64C327.319 153.64 325.666 153.24 324.146 152.44C322.653 151.613 321.453 150.44 320.546 148.92C319.666 147.373 319.226 145.52 319.226 143.36C319.226 141.973 319.479 140.627 319.986 139.32C320.493 138.013 321.199 136.84 322.106 135.8C323.039 134.733 324.146 133.893 325.426 133.28C326.706 132.667 328.119 132.36 329.666 132.36C331.159 132.36 332.453 132.587 333.546 133.04C334.666 133.493 335.533 134.093 336.146 134.84C336.759 135.587 337.066 136.4 337.066 137.28C337.066 137.867 336.906 138.373 336.586 138.8C336.266 139.2 335.799 139.4 335.186 139.4C334.519 139.427 334.039 139.227 333.746 138.8C333.479 138.347 333.346 137.947 333.346 137.6C333.346 137.333 333.386 137.067 333.466 136.8C333.546 136.507 333.706 136.24 333.946 136C333.733 135.36 333.359 134.893 332.826 134.6C332.293 134.28 331.733 134.08 331.146 134C330.586 133.893 330.119 133.84 329.746 133.84C327.933 133.84 326.399 134.573 325.146 136.04C323.919 137.48 323.306 139.587 323.306 142.36C323.306 144.147 323.586 145.733 324.146 147.12C324.733 148.507 325.546 149.6 326.586 150.4C327.626 151.173 328.826 151.56 330.186 151.56C331.439 151.56 332.639 151.227 333.786 150.56C334.933 149.893 335.826 149.08 336.466 148.12L337.506 148.92C336.813 150.04 335.973 150.947 334.986 151.64C334.026 152.333 333.026 152.84 331.986 153.16C330.973 153.48 330.013 153.64 329.106 153.64ZM347.96 153.64C347.346 153.64 346.72 153.547 346.08 153.36C345.44 153.2 344.84 152.867 344.28 152.36C343.746 151.853 343.32 151.12 343 150.16C342.68 149.173 342.52 147.88 342.52 146.28L342.6 134.68L339.52 134.72V133C340.213 132.973 340.92 132.72 341.64 132.24C342.36 131.733 343 131.053 343.56 130.2C344.146 129.347 344.546 128.413 344.76 127.4H346.12V133H352.84V134.56L346.12 134.64L346.04 145.76C346.04 146.96 346.133 147.987 346.32 148.84C346.533 149.667 346.866 150.293 347.32 150.72C347.773 151.147 348.36 151.36 349.08 151.36C349.826 151.36 350.52 151.147 351.16 150.72C351.826 150.293 352.413 149.707 352.92 148.96L354 149.84C353.413 150.72 352.826 151.413 352.24 151.92C351.68 152.427 351.133 152.8 350.6 153.04C350.066 153.307 349.573 153.467 349.12 153.52C348.666 153.6 348.28 153.64 347.96 153.64ZM365.828 153.64C363.962 153.64 362.268 153.213 360.748 152.36C359.228 151.48 358.015 150.28 357.108 148.76C356.228 147.213 355.788 145.453 355.788 143.48C355.788 141.373 356.228 139.48 357.108 137.8C357.988 136.12 359.188 134.8 360.708 133.84C362.228 132.853 363.935 132.36 365.828 132.36C367.695 132.36 369.388 132.813 370.908 133.72C372.428 134.6 373.642 135.8 374.548 137.32C375.455 138.84 375.908 140.573 375.908 142.52C375.908 144.573 375.455 146.453 374.548 148.16C373.668 149.84 372.468 151.173 370.948 152.16C369.428 153.147 367.722 153.64 365.828 153.64ZM366.148 152.04C367.562 152.04 368.682 151.64 369.508 150.84C370.335 150.04 370.922 149 371.268 147.72C371.642 146.44 371.828 145.093 371.828 143.68C371.828 142.48 371.708 141.307 371.468 140.16C371.255 138.987 370.908 137.933 370.428 137C369.948 136.04 369.322 135.28 368.548 134.72C367.802 134.16 366.895 133.88 365.828 133.88C364.442 133.88 363.308 134.28 362.428 135.08C361.548 135.88 360.895 136.92 360.468 138.2C360.068 139.48 359.868 140.853 359.868 142.32C359.868 143.973 360.095 145.547 360.548 147.04C361.002 148.507 361.695 149.707 362.628 150.64C363.562 151.573 364.735 152.04 366.148 152.04ZM379.307 151.8C380.134 151.8 380.707 151.6 381.027 151.2C381.347 150.773 381.534 150.2 381.587 149.48C381.64 148.733 381.667 147.88 381.667 146.92V137.8C381.667 137.373 381.667 136.947 381.667 136.52C381.694 136.093 381.747 135.653 381.827 135.2C381.347 135.227 380.867 135.253 380.387 135.28C379.934 135.28 379.467 135.293 378.987 135.32V133.68H380.227C381.374 133.68 382.16 133.573 382.587 133.36C383.04 133.12 383.414 132.867 383.707 132.6H384.867C384.92 133.027 384.96 133.56 384.987 134.2C385.014 134.813 385.04 135.6 385.067 136.56C385.467 135.893 386.014 135.24 386.707 134.6C387.4 133.96 388.174 133.427 389.027 133C389.907 132.573 390.827 132.36 391.787 132.36C392.534 132.36 393.187 132.56 393.747 132.96C394.307 133.36 394.587 134 394.587 134.88C394.587 135.093 394.52 135.36 394.387 135.68C394.254 135.973 394.04 136.24 393.747 136.48C393.454 136.693 393.067 136.8 392.587 136.8C392 136.773 391.534 136.547 391.187 136.12C390.84 135.667 390.707 135.147 390.787 134.56C390.12 134.533 389.427 134.707 388.707 135.08C388.014 135.453 387.36 135.973 386.747 136.64C386.134 137.28 385.587 138.04 385.107 138.92L385.147 148.76C385.147 149.293 385.134 149.773 385.107 150.2C385.107 150.6 385.067 151.027 384.987 151.48C385.414 151.453 385.827 151.44 386.227 151.44C386.654 151.413 387.08 151.387 387.507 151.36V153H379.307V151.8ZM397.892 160.16L396.812 159.36C397.105 158.987 397.412 158.453 397.732 157.76C398.052 157.067 398.305 156.293 398.492 155.44C398.705 154.613 398.759 153.8 398.652 153C398.465 153.08 398.292 153.133 398.132 153.16C397.972 153.213 397.812 153.24 397.652 153.24C397.145 153.24 396.705 153.053 396.332 152.68C395.985 152.307 395.812 151.84 395.812 151.28C395.812 150.533 396.025 149.96 396.452 149.56C396.905 149.16 397.425 148.96 398.012 148.96C398.945 148.96 399.652 149.32 400.132 150.04C400.612 150.733 400.852 151.587 400.852 152.6C400.852 153.267 400.719 154.08 400.452 155.04C400.212 156 399.865 156.933 399.412 157.84C398.985 158.773 398.479 159.547 397.892 160.16ZM415.997 153V151.68C417.01 151.627 417.704 151.4 418.077 151C418.45 150.573 418.65 150 418.677 149.28C418.73 148.533 418.757 147.693 418.757 146.76V129.48C418.757 128.947 418.77 128.44 418.797 127.96C418.824 127.453 418.85 127 418.877 126.6C418.397 126.627 417.917 126.653 417.437 126.68C416.957 126.707 416.477 126.733 415.997 126.76V125H424.997V126.32C424.01 126.347 423.317 126.573 422.917 127C422.544 127.427 422.33 128 422.277 128.72C422.25 129.44 422.237 130.28 422.237 131.24V148.4C422.237 149.12 422.224 149.733 422.197 150.24C422.197 150.747 422.17 151.173 422.117 151.52L429.597 151.4C431.277 151.373 432.544 150.84 433.397 149.8C434.277 148.76 434.717 147.067 434.717 144.72H436.077L435.837 153H415.997ZM439.122 153V151.68C440.135 151.627 440.829 151.4 441.202 151C441.575 150.573 441.775 150 441.802 149.28C441.855 148.533 441.882 147.693 441.882 146.76V129.48C441.882 128.947 441.895 128.44 441.922 127.96C441.949 127.453 441.975 127 442.002 126.6C441.522 126.627 441.042 126.653 440.562 126.68C440.082 126.707 439.602 126.733 439.122 126.76V125H448.122V126.32C447.135 126.347 446.442 126.573 446.042 127C445.669 127.427 445.455 128 445.402 128.72C445.375 129.44 445.362 130.28 445.362 131.24V148.4C445.362 149.12 445.349 149.733 445.322 150.24C445.322 150.747 445.295 151.173 445.242 151.52L452.722 151.4C454.402 151.373 455.669 150.84 456.522 149.8C457.402 148.76 457.842 147.067 457.842 144.72H459.202L458.962 153H439.122ZM483.586 133.92C483.319 131.413 482.439 129.467 480.946 128.08C479.479 126.693 477.586 126 475.266 126C473.852 126 472.519 126.307 471.266 126.92C470.039 127.507 468.959 128.36 468.026 129.48C467.092 130.6 466.359 131.947 465.826 133.52C465.292 135.093 465.026 136.867 465.026 138.84C465.026 141.347 465.506 143.56 466.466 145.48C467.426 147.4 468.719 148.893 470.346 149.96C471.972 151.027 473.772 151.56 475.746 151.56C477.479 151.56 479.186 151.173 480.866 150.4C482.546 149.6 483.919 148.453 484.986 146.96L486.026 147.8C484.879 149.373 483.639 150.587 482.306 151.44C480.972 152.293 479.639 152.867 478.306 153.16C476.999 153.48 475.799 153.64 474.706 153.64C472.706 153.64 470.866 153.28 469.186 152.56C467.532 151.84 466.092 150.84 464.866 149.56C463.666 148.253 462.732 146.747 462.066 145.04C461.426 143.307 461.106 141.44 461.106 139.44C461.106 137.547 461.386 135.707 461.946 133.92C462.532 132.133 463.399 130.52 464.546 129.08C465.692 127.64 467.132 126.493 468.866 125.64C470.626 124.787 472.666 124.36 474.986 124.36C476.479 124.36 477.892 124.56 479.226 124.96C480.559 125.36 481.839 125.973 483.066 126.8L482.866 124.64H485.026V133.92H483.586Z" fill="#EF1F1A"/>
<circle cx="90" cy="35" r="12" fill="url(#paint2_radial_7_2)"/>
<defs>
<radialGradient id="paint0_radial_7_2" cx="0" cy="0" r="1" gradientUnits="userSpaceOnUse" gradientTransform="translate(66 66) rotate(90) scale(66)">
<stop stop-color="white"/>
<stop offset="0.8125" stop-color="#EBF3F9" stop-opacity="0.06"/>
<stop offset="1" stop-color="#C6E2FB"/>
</radialGradient>
<radialGradient id="paint1_radial_7_2" cx="0" cy="0" r="1" gradientUnits="userSpaceOnUse" gradientTransform="translate(66 66) rotate(90) scale(66)">
<stop stop-color="white"/>
<stop offset="0.8125" stop-color="white"/>
<stop offset="1" stop-color="#0070C4"/>
</radialGradient>
<radialGradient id="paint2_radial_7_2" cx="0" cy="0" r="1" gradientUnits="userSpaceOnUse" gradientTransform="translate(90 35) rotate(90) scale(12)">
<stop offset="0.354167" stop-color="white"/>
<stop offset="1" stop-color="white" stop-opacity="0"/>
</radialGradient>
</defs>
</svg>
