<svg width="250" height="251" viewBox="0 0 250 251" fill="none" xmlns="http://www.w3.org/2000/svg">
<g clip-path="url(#clip0_29_417)">
<path d="M218.612 92.7559H186.406V239.924H218.612V92.7559Z" fill="#4AA5D3"/>
<path d="M203.999 92.7559H186.406V239.924H203.999V92.7559Z" fill="#2594BF"/>
<path d="M220.306 96.5806H190.229C188.117 96.5806 186.405 94.8687 186.405 92.7563C186.405 90.644 188.117 88.9321 190.229 88.9321H220.306C222.418 88.9321 224.13 90.644 224.13 92.7563C224.13 94.8687 222.418 96.5806 220.306 96.5806Z" fill="#66CDED"/>
<path d="M220.306 222.559H190.229C188.117 222.559 186.405 220.847 186.405 218.734C186.405 216.622 188.117 214.91 190.229 214.91H220.306C222.418 214.91 224.13 216.622 224.13 218.734C224.13 220.847 222.418 222.559 220.306 222.559Z" fill="#66CDED"/>
<path d="M220.306 204.562H190.229C188.117 204.562 186.405 202.85 186.405 200.737C186.405 198.625 188.117 196.913 190.229 196.913H220.306C222.418 196.913 224.13 198.625 224.13 200.737C224.13 202.85 222.418 204.562 220.306 204.562Z" fill="#66CDED"/>
<path d="M220.306 186.565H190.229C188.117 186.565 186.405 184.853 186.405 182.741C186.405 180.628 188.117 178.917 190.229 178.917H220.306C222.418 178.917 224.13 180.628 224.13 182.741C224.13 184.853 222.418 186.565 220.306 186.565Z" fill="#66CDED"/>
<path d="M220.306 168.568H190.229C188.117 168.568 186.405 166.856 186.405 164.744C186.405 162.631 188.117 160.919 190.229 160.919H220.306C222.418 160.919 224.13 162.631 224.13 164.744C224.13 166.856 222.418 168.568 220.306 168.568Z" fill="#66CDED"/>
<path d="M220.306 150.571H190.229C188.117 150.571 186.405 148.859 186.405 146.747C186.405 144.634 188.117 142.922 190.229 142.922H220.306C222.418 142.922 224.13 144.634 224.13 146.747C224.13 148.859 222.418 150.571 220.306 150.571Z" fill="#66CDED"/>
<path d="M220.306 132.574H190.229C188.117 132.574 186.405 130.862 186.405 128.75C186.405 126.638 188.117 124.926 190.229 124.926H220.306C222.418 124.926 224.13 126.638 224.13 128.75C224.13 130.862 222.418 132.574 220.306 132.574Z" fill="#66CDED"/>
<path d="M220.306 114.577H190.229C188.117 114.577 186.405 112.865 186.405 110.753C186.405 108.641 188.117 106.929 190.229 106.929H220.306C222.418 106.929 224.13 108.641 224.13 110.753C224.13 112.865 222.418 114.577 220.306 114.577Z" fill="#66CDED"/>
<path d="M97.9395 211.332C93.6899 212.377 89.7241 214.957 87.1733 218.453C86.2236 219.754 84.3091 219.92 83.145 218.806C73.3369 209.422 57.6372 210.394 49.0405 220.89C47.873 222.315 46.0254 223.227 43.7754 223.227C36.7354 223.227 31.0283 228.935 31.0283 235.975C31.0283 236.229 31.0381 239.54 31.0522 239.791H97.9399L97.9395 211.332Z" fill="#97BC31"/>
<path d="M58.6763 226.874C60.6553 226.528 62.437 225.411 63.4185 223.659C65.8936 219.241 69.7871 215.654 74.6045 213.605C65.5581 210.503 55.3257 213.216 49.04 220.89C47.8755 222.312 46.0303 223.227 43.7749 223.227C36.7349 223.227 31.0278 228.935 31.0278 235.975C31.0278 236.229 31.0376 239.54 31.0522 239.791H48.1265C47.9438 233.582 52.3267 227.99 58.6763 226.874Z" fill="#76A314"/>
<path d="M184.803 1.20073L100.054 66.1763C98.4009 67.4434 97.4297 69.4224 97.4297 71.523V239.924H190.229V3.93608C190.229 1.10308 187.032 -0.508251 184.803 1.20073Z" fill="#51506D"/>
<path d="M131.415 70.7652L190.229 25.6739V3.93608C190.229 1.10308 187.032 -0.508251 184.803 1.20073L100.054 66.1763C98.4009 67.4434 97.4297 69.4224 97.4297 71.523V239.924H128.791V76.1119C128.791 74.0113 129.762 72.0323 131.415 70.7652Z" fill="#474763"/>
<path d="M184.803 1.20073L100.054 66.1763C98.6523 67.2505 97.7485 68.8384 97.5034 70.5762H190.229V3.93608C190.229 1.10308 187.032 -0.508251 184.803 1.20073Z" fill="#676789"/>
<path d="M184.803 1.20073C113.641 55.7764 93.9429 69.7852 97.5034 70.5757H131.662L190.229 25.6739V3.93608C190.229 1.10308 187.032 -0.508251 184.803 1.20073Z" fill="#5C5C7F"/>
<path d="M162.235 103.506C162.232 103.443 162.222 103.382 162.217 103.319C162.208 103.202 162.197 103.086 162.183 102.971C162.169 102.868 162.154 102.766 162.136 102.664C162.112 102.524 162.084 102.387 162.052 102.25C162.037 102.191 162.022 102.132 162.006 102.074C161.226 99.1284 158.55 96.9546 155.359 96.9546H155.165H133.01C129.478 96.9546 102.808 96.9546 97.4302 96.9546V110.723C102.809 110.723 129.478 110.723 133.01 110.723H145.383H155.36C159.162 110.723 162.244 107.641 162.244 103.839C162.244 103.781 162.236 103.726 162.235 103.668C162.233 103.614 162.238 103.561 162.235 103.506Z" fill="#66CDED"/>
<path d="M162.217 135.919C162.208 135.802 162.197 135.687 162.183 135.571C162.169 135.468 162.154 135.366 162.136 135.264C162.112 135.125 162.084 134.987 162.052 134.851C162.037 134.791 162.022 134.732 162.006 134.674C161.226 131.729 158.55 129.555 155.359 129.555H155.165H133.01C129.478 129.555 102.808 129.555 97.4302 129.555V143.323C110.305 143.323 142.175 143.323 155.36 143.323C159.162 143.323 162.244 140.241 162.244 136.439C162.244 136.381 162.236 136.326 162.235 136.269C162.233 136.214 162.238 136.161 162.235 136.106C162.232 136.043 162.222 135.982 162.217 135.919Z" fill="#66CDED"/>
<path d="M155.359 175.923C159.614 175.923 162.881 172.083 162.136 167.864C161.573 164.61 158.746 162.154 155.359 162.154C142.315 162.154 110.47 162.154 97.4297 162.154V175.923C110.304 175.923 142.175 175.923 155.359 175.923Z" fill="#66CDED"/>
<path d="M133.01 208.523H145.382H155.359C159.949 208.523 163.18 204.131 162.006 199.874C161.226 196.928 158.55 194.754 155.359 194.754H155.165C142.354 194.754 109.345 194.754 97.4297 194.754V208.523C102.808 208.523 129.477 208.523 133.01 208.523Z" fill="#66CDED"/>
<path d="M139.242 96.9551H118.334V110.725H139.242V96.9551Z" fill="#56BAE2"/>
<path d="M139.242 129.553H118.334V143.322H139.242V129.553Z" fill="#56BAE2"/>
<path d="M139.242 162.155H118.334V175.925H139.242V162.155Z" fill="#56BAE2"/>
<path d="M139.242 194.753H118.334V208.522H139.242V194.753Z" fill="#56BAE2"/>
<path d="M128.788 96.9551H118.334V110.725H128.788V96.9551Z" fill="#4AA5D3"/>
<path d="M128.788 129.553H118.334V143.322H128.788V129.553Z" fill="#4AA5D3"/>
<path d="M128.788 162.155H118.334V175.925H128.788V162.155Z" fill="#4AA5D3"/>
<path d="M128.788 194.753H118.334V208.522H128.788V194.753Z" fill="#4AA5D3"/>
<path d="M223.517 236.731C223.414 236.731 219.312 236.731 219.438 236.731C195.63 236.731 59.8911 236.731 26.4815 236.731C23.3374 236.731 20.5537 238.868 19.7891 242.027C18.7524 246.407 22.085 250.5 26.4815 250.5C42.9932 250.5 215.729 250.5 209.461 250.5C214.537 250.5 218.418 250.5 223.518 250.5C227.319 250.5 230.401 247.418 230.401 243.616C230.401 239.884 227.368 236.731 223.517 236.731Z" fill="#E6E6E6"/>
<path d="M43.2886 241.851C44.0693 238.906 46.7451 236.731 49.936 236.731C33.1846 236.731 43.4136 236.731 26.4814 236.731C23.2729 236.731 20.5366 238.934 19.7891 242.027C18.751 246.406 22.0854 250.5 26.4814 250.5C36.5791 250.5 39.9434 250.5 49.936 250.5C45.4687 250.5 42.1099 246.269 43.2886 241.851Z" fill="#CCCCCC"/>
</g>
<defs>
<clipPath id="clip0_29_417">
<rect width="250" height="250" fill="white" transform="translate(0 0.5)"/>
</clipPath>
</defs>
</svg>
