<svg width="250" height="251" viewBox="0 0 250 251" fill="none" xmlns="http://www.w3.org/2000/svg">
<g clip-path="url(#clip0_29_467)">
<path d="M27.2504 12.5903V49.3271L52.3847 29.8706V12.5903H27.2504Z" fill="#9EA7AF"/>
<path opacity="0.1" d="M27.2504 12.5903V49.3271L39.9902 39.4653V12.5903H27.2504Z" fill="black"/>
<path d="M22.017 10.6079C22.017 11.9927 23.1484 13.1245 24.5317 13.1245H55.1024C56.4862 13.1245 57.6176 11.9927 57.6176 10.6079V3.06347C57.6176 1.67871 56.4862 0.546875 55.1024 0.546875H24.5317C23.1484 0.546875 22.017 1.67871 22.017 3.06347V10.6079Z" fill="#424F59"/>
<g opacity="0.1">
<path d="M34.9604 10.6079V3.06347C34.9604 1.67871 36.0917 0.546875 37.475 0.546875H24.5317C23.1484 0.546875 22.017 1.67871 22.017 3.06347V10.6079C22.017 11.9927 23.1484 13.1245 24.5317 13.1245H37.475C36.0917 13.1245 34.9604 11.9927 34.9604 10.6079Z" fill="black"/>
</g>
<path d="M34.6181 202.618C42.3862 202.618 49.4877 207.495 52.289 214.754L52.4784 215.244L52.9535 215.019C54.7538 214.167 56.6786 213.734 58.6752 213.734C60.8915 213.734 63.0883 214.289 65.0272 215.337L65.4305 215.554L65.6732 215.166C69.2518 209.442 75.409 206.025 82.1434 206.025C92.8514 206.025 101.563 214.74 101.563 225.452C101.563 228.314 100.951 231.075 99.7449 233.66L99.4207 234.355H105.422C106.539 234.355 107.449 235.264 107.449 236.383V243.617H225.325V161.814L165.774 115.718L89.3729 174.857C89.2391 174.962 89.0789 175.016 88.91 175.016C88.6712 175.016 88.45 174.907 88.304 174.718L82.1903 166.763C82.0677 166.604 82.0121 166.396 82.0379 166.196C82.0633 165.991 82.1668 165.811 82.3294 165.684L143.783 118.113V65.9433L84.2303 19.8447L24.6782 65.9438V205.472C27.5908 203.662 31.0063 202.618 34.6181 202.618Z" fill="#E6E9ED"/>
<path opacity="0.1" d="M34.6181 202.618C35.5834 202.618 36.538 202.694 37.4755 202.84V56.0381L24.6782 65.9438V205.472C27.5908 203.662 31.0063 202.618 34.6181 202.618Z" fill="black"/>
<path d="M7.36693 79.6327C7.63353 79.6327 7.90209 79.5477 8.12962 79.3714L84.2315 20.4624L160.333 79.3714C160.561 79.5477 160.83 79.6327 161.097 79.6327C161.472 79.6327 161.841 79.4647 162.088 79.1444L167.976 71.1879C168.177 70.9237 168.495 70.5907 168.453 70.2601C168.409 69.9291 168.238 69.6288 167.976 69.4266L88.0533 7.55908C86.9473 6.70361 85.6265 6.25146 84.2315 6.25146C82.837 6.25146 81.5152 6.70361 80.4098 7.55908L0.487549 69.4266C0.224854 69.6288 0.0524915 69.9291 0.0109877 70.2601C-0.0319809 70.5912 0.0578626 70.9237 0.260011 71.1879L6.37377 79.1444C6.62133 79.4652 6.99193 79.6327 7.36693 79.6327Z" fill="#424F59"/>
<g opacity="0.1">
<path d="M11.0749 71.1884C10.8733 70.9242 10.7829 70.5912 10.8259 70.2606C10.8679 69.9296 11.0398 69.6293 11.3025 69.4271L89.6387 8.78662L88.0533 7.55908C86.9473 6.70361 85.6265 6.25146 84.2315 6.25146C82.837 6.25146 81.5152 6.70361 80.4098 7.55908L0.487549 69.4266C0.224854 69.6288 0.0524915 69.9291 0.0109877 70.2601C-0.0319809 70.5912 0.0578626 70.9237 0.260011 71.1879L6.37377 79.1444C6.62084 79.4647 6.99193 79.6327 7.36644 79.6327C7.63304 79.6327 7.9016 79.5477 8.12914 79.3714L13.9192 74.889L11.0749 71.1884Z" fill="black"/>
</g>
<path d="M65.1459 124.244C63.7631 124.244 62.6312 123.112 62.6312 121.728V59.3589C62.6312 57.9751 63.7631 56.8433 65.1459 56.8433H103.31C104.694 56.8433 105.825 57.9751 105.825 59.3589V121.728C105.825 123.112 104.694 124.244 103.31 124.244H65.1459V124.244Z" fill="#FFC502"/>
<path d="M105.825 79.8264H62.6322V101.262H105.825V79.8264Z" fill="#FCDB67"/>
<g opacity="0.1">
<path d="M75.2665 121.728V59.3589C75.2665 57.9751 76.3983 56.8433 77.7816 56.8433H65.1459C63.7631 56.8433 62.6312 57.9751 62.6312 59.3589V121.728C62.6312 123.112 63.7631 124.244 65.1459 124.244H77.7816C76.3983 124.244 75.2665 123.112 75.2665 121.728Z" fill="black"/>
</g>
<path d="M103.31 53.1812H65.1459C61.7396 53.1812 58.9691 55.9526 58.9691 59.3589V121.728C58.9691 125.135 61.7401 127.906 65.1459 127.906H103.31C106.717 127.906 109.488 125.134 109.488 121.728V59.3589C109.488 55.9521 106.717 53.1812 103.31 53.1812ZM102.164 76.1635H87.8909V60.5054H102.164V76.1635ZM102.164 97.599H87.8909V83.4877H102.164V97.599ZM80.5662 60.5054V76.1635H66.2933V60.5054H80.5662ZM66.2933 83.4877H80.5662V97.599H66.2933V83.4877ZM66.2933 104.923H80.5662V120.581H66.2933V104.923ZM87.8904 120.582V104.924H102.163V120.582H87.8904Z" fill="#775436"/>
<path d="M88.9105 175.505C89.1771 175.505 89.4456 175.42 89.6727 175.243L165.775 116.335L241.877 175.243C242.104 175.42 242.373 175.505 242.64 175.505C243.015 175.505 243.385 175.337 243.631 175.016L249.52 167.061C249.721 166.797 250.039 166.463 249.997 166.133C249.953 165.802 249.782 165.503 249.52 165.298L169.596 103.431C168.49 102.576 167.17 102.124 165.775 102.124C164.381 102.124 163.058 102.576 161.953 103.431L82.0311 165.298C81.7679 165.503 81.5955 165.802 81.554 166.133C81.5116 166.463 81.6014 166.797 81.8036 167.061L87.9173 175.016C88.1649 175.337 88.5345 175.505 88.9105 175.505Z" fill="#424F59"/>
<g opacity="0.1">
<path d="M91.5579 167.061C91.3558 166.797 91.2659 166.463 91.3084 166.133C91.3499 165.802 91.5223 165.503 91.7855 165.298L170.653 104.248L169.597 103.431C168.491 102.576 167.17 102.124 165.775 102.124C164.381 102.124 163.058 102.576 161.954 103.431L82.0311 165.298C81.7679 165.503 81.5955 165.802 81.554 166.133C81.5116 166.463 81.6014 166.797 81.8036 167.061L87.9173 175.016C88.1644 175.337 88.5345 175.505 88.91 175.505C89.1766 175.505 89.4451 175.42 89.6722 175.243L94.7972 171.277L91.5579 167.061Z" fill="black"/>
</g>
<path d="M187.394 243.618V183.844C187.394 182.46 186.262 181.327 184.879 181.327H146.666C145.282 181.327 144.15 182.46 144.15 183.844V243.618H187.394Z" fill="#EF5050"/>
<path opacity="0.1" d="M157.194 243.618V183.844C157.194 182.46 158.325 181.327 159.709 181.327H146.666C145.282 181.327 144.15 182.46 144.15 183.844V243.618H157.194Z" fill="black"/>
<path d="M240.034 243.129H107.449V247.937C107.449 249.321 106.317 250.454 104.934 250.454H240.034C242.057 250.454 243.696 248.814 243.696 246.791C243.696 244.769 242.056 243.129 240.034 243.129Z" fill="#424F59"/>
<path d="M153.909 220.254C151.886 220.254 150.247 218.615 150.247 216.592V207.53C150.247 205.507 151.886 203.868 153.909 203.868C155.932 203.868 157.571 205.507 157.571 207.53V216.592C157.571 218.614 155.932 220.254 153.909 220.254Z" fill="#960B15"/>
<path d="M72.0658 227.14C72.0658 229.795 71.2875 232.27 69.9525 234.354H99.951C101.292 231.675 102.052 228.653 102.052 225.452C102.052 214.452 93.1375 205.536 82.1439 205.536C74.8456 205.536 68.4701 209.47 65.0048 215.33C69.2045 217.595 72.0658 222.039 72.0658 227.14Z" fill="#5DC647"/>
<path d="M70.5389 234.355C71.8172 232.252 72.5541 229.783 72.5541 227.141C72.5541 219.467 66.3402 213.247 58.6747 213.247C56.5526 213.247 54.5429 213.726 52.744 214.578C49.934 207.298 42.8803 202.131 34.6176 202.131C24.8354 202.131 16.7436 209.369 15.3891 218.788C10.2217 219.791 6.31737 224.34 6.31737 229.806C6.31737 231.426 6.66258 232.964 7.27928 234.355H70.5389Z" fill="#368C0E"/>
<path opacity="0.1" d="M20.0166 234.355C19.3999 232.964 19.0546 231.426 19.0546 229.806C19.0546 224.34 22.9589 219.79 28.1269 218.788C29.1723 211.518 34.2338 205.551 40.9867 203.205C38.9911 202.511 36.849 202.131 34.6176 202.131C24.8354 202.131 16.7436 209.369 15.3891 218.788C10.2217 219.791 6.31737 224.34 6.31737 229.806C6.31737 231.426 6.66258 232.964 7.27928 234.355H20.0166Z" fill="black"/>
<path d="M0.963379 236.383C0.963379 235 2.09521 233.867 3.47851 233.867H105.422C106.805 233.867 107.937 235 107.937 236.383V247.937C107.937 249.321 106.805 250.454 105.422 250.454H3.47851C2.09521 250.454 0.963379 249.321 0.963379 247.937C0.963379 247.937 0.963379 236.383 0.963379 236.383Z" fill="#C6A07D"/>
<g opacity="0.1">
<path d="M13.8335 247.937V236.383C13.8335 235 14.9648 233.867 16.3481 233.867H3.47851C2.09521 233.867 0.963379 235 0.963379 236.383V247.937C0.963379 249.321 2.09521 250.454 3.47851 250.454H16.3486C14.9653 250.454 13.8335 249.321 13.8335 247.937Z" fill="black"/>
</g>
</g>
<defs>
<clipPath id="clip0_29_467">
<rect width="250" height="250" fill="white" transform="translate(0 0.5)"/>
</clipPath>
</defs>
</svg>
