<svg width="250" height="251" viewBox="0 0 250 251" fill="none" xmlns="http://www.w3.org/2000/svg">
<path d="M39.7344 108.633V94.1968H19.9297V129.093L39.7344 108.633Z" fill="#CB7C52"/>
<path d="M46.2173 98.8218C46.2173 100.174 45.1108 101.28 43.7593 101.28H15.9038C14.5518 101.28 13.4458 100.174 13.4458 98.8218V86.8188C13.4458 85.4663 14.5518 84.3604 15.9038 84.3604H43.7593C45.1113 84.3604 46.2173 85.4668 46.2173 86.8188V98.8218Z" fill="#ABCCD3"/>
<path opacity="0.1" d="M24.2036 98.8218V86.8188C24.2036 85.4663 25.3096 84.3604 26.6616 84.3604H15.9038C14.5518 84.3604 13.4458 85.4668 13.4458 86.8188V98.8218C13.4458 100.174 14.5518 101.28 15.9038 101.28H26.6611C25.3091 101.28 24.2036 100.174 24.2036 98.8218Z" fill="black"/>
<path d="M165.095 230.493C165.095 226.099 167.139 222.538 169.661 222.538C169.673 222.538 169.686 222.541 169.698 222.542C169.71 222.541 169.722 222.538 169.734 222.538C169.734 222.538 172.156 222.538 176.033 222.538C175.312 221.097 174.871 219.217 174.871 217.155C174.871 212.622 176.98 208.949 179.583 208.949C179.595 208.949 179.607 208.952 179.619 208.952C179.632 208.952 179.645 208.949 179.657 208.949C179.657 208.949 207.883 208.949 226.883 208.949V143.901C226.647 143.921 226.409 143.936 226.167 143.936H199.538H120.424H108.218V229.858C108.218 231.209 107.111 232.316 105.76 232.316H165.22C165.142 231.729 165.095 231.122 165.095 230.493Z" fill="#FF9F3D"/>
<path d="M167.006 220.048C167.019 220.048 167.031 220.051 167.043 220.052C167.055 220.051 167.067 220.048 167.079 220.048C167.079 220.048 171.083 220.048 173.378 220.048C172.752 218.796 172.337 217.216 172.239 215.471H130.096C128.086 215.471 126.457 217.1 126.457 219.11C126.457 221.119 128.086 222.748 130.096 222.748H163.583C164.421 221.096 165.643 220.048 167.006 220.048Z" fill="#FFBB4A"/>
<path d="M108.218 229.858C108.218 231.21 107.111 232.317 105.76 232.317H16.5732C15.2212 232.317 14.1152 231.21 14.1152 229.858V137.559C14.1152 136.207 14.8853 134.306 15.8247 133.335L59.4565 88.2584C60.397 87.2872 61.9355 87.2872 62.876 88.2584L106.508 133.335C107.448 134.306 108.218 136.207 108.218 137.559V229.858Z" fill="#FFBB4A"/>
<path opacity="0.1" d="M24.812 142.871C24.812 141.52 25.5815 139.619 26.5215 138.647L69.0864 94.6737L62.876 88.2577C61.9355 87.2865 60.397 87.2865 59.4565 88.2577L15.8247 133.334C14.8853 134.305 14.1152 136.206 14.1152 137.558V229.857C14.1152 231.208 15.2217 232.315 16.5732 232.315H24.812V142.871Z" fill="black"/>
<path d="M191.369 86.4922H61.269C61.1553 86.4922 61.043 86.5112 60.9321 86.543C61.6362 86.6592 62.314 86.9824 62.8652 87.5166C62.9761 87.6231 69.0332 93.8779 77.1699 102.284H191.369C195.425 102.284 198.744 98.9653 198.744 94.9087V93.8662C198.743 89.811 195.425 86.4922 191.369 86.4922Z" fill="#AB5436"/>
<path d="M205.836 101.233H76.1514C80.7461 105.98 86.0884 111.499 91.4375 117.026H205.836C209.892 117.026 213.211 113.708 213.211 109.651V108.609C213.21 104.552 209.892 101.233 205.836 101.233Z" fill="#CB7C52"/>
<path d="M217.733 115.972H90.418C95.7017 121.432 101.035 126.943 105.702 131.766H217.733C221.789 131.766 225.107 128.447 225.107 124.391V123.348C225.107 119.291 221.789 115.972 217.733 115.972Z" fill="#AB5436"/>
<path d="M76.4917 229.331C76.4917 230.684 75.3848 231.79 74.0337 231.79H48.2974C46.9458 231.79 45.8398 230.684 45.8398 229.331V172.655C45.8398 171.302 46.9463 170.196 48.2974 170.196H74.0337C75.3853 170.196 76.4917 171.302 76.4917 172.655V229.331Z" fill="#CB7C52"/>
<path opacity="0.1" d="M56.4834 229.331V172.655C56.4834 171.302 57.5903 170.196 58.9414 170.196H48.2974C46.9458 170.196 45.8398 171.302 45.8398 172.655V229.331C45.8398 230.684 46.9463 231.789 48.2974 231.789H58.9414C57.5898 231.79 56.4834 230.684 56.4834 229.331Z" fill="black"/>
<path d="M226.167 130.713H104.683C112.418 138.705 118.52 145.011 119.918 146.457C120.084 146.488 120.253 146.506 120.424 146.506H226.167C230.707 146.506 234.42 142.953 234.42 138.609C234.42 134.267 230.707 130.713 226.167 130.713Z" fill="#CB7C52"/>
<path d="M121.062 146.777C121.062 146.777 64.0391 87.8466 63.6982 87.517C62.2544 86.1191 59.9507 86.1562 58.5527 87.6005L1.02441 147.03C-0.373048 148.474 -0.335938 150.778 1.10791 152.175C1.81445 152.859 2.72656 153.2 3.63867 153.2C4.58935 153.2 5.53955 152.829 6.25342 152.092L61.167 95.3627L115.833 151.838C116.546 152.576 117.496 152.947 118.447 152.947C119.358 152.947 120.271 152.607 120.978 151.923C122.422 150.525 122.459 148.221 121.062 146.777Z" fill="#CB7C52"/>
<path d="M51.3408 151.255C50.2983 151.255 49.4517 150.409 49.4517 149.365V130.846C49.4517 124.384 54.7075 119.128 61.166 119.128C67.6255 119.128 72.8804 124.384 72.8804 130.846V149.365C72.8804 150.409 72.0342 151.255 70.9902 151.255H51.3408Z" fill="#FCC96C"/>
<path d="M226.883 154.389H130.097C128.087 154.389 126.458 156.019 126.458 158.028C126.458 160.038 128.087 161.667 130.097 161.667H226.884L226.883 154.389Z" fill="#FFBB4A"/>
<path d="M226.883 172.076H130.097C128.087 172.076 126.458 173.705 126.458 175.715C126.458 177.725 128.087 179.354 130.097 179.354H226.884L226.883 172.076Z" fill="#FFBB4A"/>
<path d="M226.883 190.027H130.097C128.087 190.027 126.458 191.656 126.458 193.666C126.458 195.675 128.087 197.304 130.097 197.304H226.884L226.883 190.027Z" fill="#FFBB4A"/>
<path d="M155.937 206.188C155.937 207 155.273 207.663 154.461 207.663H128.803C127.992 207.663 127.329 207 127.329 206.188V169.959C127.329 169.148 127.992 168.484 128.803 168.484H154.461C155.272 168.484 155.937 169.148 155.937 169.959V206.188Z" fill="#FCC96C"/>
<path opacity="0.1" d="M135.532 206.188V169.959C135.532 169.148 136.195 168.484 137.006 168.484H128.803C127.992 168.484 127.329 169.148 127.329 169.959V206.188C127.329 207 127.992 207.663 128.803 207.663H137.006C136.196 207.664 135.532 207 135.532 206.188Z" fill="black"/>
<path d="M211.502 206.188C211.502 207 210.839 207.663 210.027 207.663H184.368C183.557 207.663 182.893 207 182.893 206.188V169.959C182.893 169.148 183.557 168.484 184.368 168.484H210.027C210.838 168.484 211.502 169.148 211.502 169.959V206.188Z" fill="#FCC96C"/>
<path opacity="0.1" d="M191.08 206.188V169.959C191.08 169.148 191.743 168.484 192.555 168.484H184.368C183.557 168.484 182.893 169.148 182.893 169.959V206.188C182.893 207 183.557 207.663 184.368 207.663H192.555C191.744 207.664 191.08 207 191.08 206.188Z" fill="black"/>
<path d="M108.218 154.389H89.3677C87.3579 154.389 85.729 156.019 85.729 158.028C85.729 160.038 87.3579 161.667 89.3677 161.667H108.218V154.389Z" fill="#FCC96C"/>
<path d="M108.218 174.75H89.3677C87.3579 174.75 85.729 176.379 85.729 178.389C85.729 180.399 87.3579 182.028 89.3677 182.028H108.218V174.75Z" fill="#FCC96C"/>
<path d="M108.218 195.11H89.3677C87.3579 195.11 85.729 196.739 85.729 198.749C85.729 200.758 87.3579 202.387 89.3677 202.387H108.218V195.11Z" fill="#FCC96C"/>
<path d="M108.218 215.471H89.3677C87.3579 215.471 85.729 217.1 85.729 219.109C85.729 221.119 87.3579 222.748 89.3677 222.748H108.218V215.471Z" fill="#FCC96C"/>
<path d="M14.1147 161.667H32.1514C34.1606 161.667 35.79 160.038 35.79 158.028C35.79 156.019 34.1606 154.389 32.1514 154.389H14.1147V161.667Z" fill="#FCC96C"/>
<path d="M14.1147 182.028H32.1514C34.1606 182.028 35.79 180.399 35.79 178.39C35.79 176.38 34.1606 174.751 32.1514 174.751H14.1147V182.028Z" fill="#FCC96C"/>
<path d="M14.1147 202.387H32.1514C34.1606 202.387 35.79 200.758 35.79 198.749C35.79 196.739 34.1606 195.11 32.1514 195.11H14.1147V202.387Z" fill="#FCC96C"/>
<path d="M14.1147 222.748H32.1514C34.1606 222.748 35.79 221.119 35.79 219.109C35.79 217.1 34.1606 215.471 32.1514 215.471H14.1147V222.748Z" fill="#FCC96C"/>
<path d="M61.166 115.489C52.7002 115.489 45.813 122.378 45.813 130.846V149.365C45.813 152.414 48.293 154.894 51.3408 154.894H70.9902C74.0386 154.894 76.519 152.414 76.519 149.365V130.846C76.519 122.378 69.6323 115.489 61.166 115.489ZM69.2417 130.846V132.604H64.8047V123.643C67.4326 124.978 69.2417 127.702 69.2417 130.846ZM57.5273 123.643V132.604H53.0903V130.846C53.0903 127.701 54.8994 124.978 57.5273 123.643ZM53.0903 139.882H57.5273V147.617H53.0903V139.882ZM64.8047 147.617V139.882H69.2417V147.617H64.8047Z" fill="#AB5436"/>
<path d="M154.461 164.845H128.803C125.983 164.845 123.69 167.139 123.69 169.959V206.188C123.69 209.008 125.983 211.302 128.803 211.302H154.461C157.281 211.302 159.575 209.008 159.575 206.188V169.959C159.575 167.139 157.281 164.845 154.461 164.845ZM130.968 185.387H137.994V190.76H130.968V185.387ZM145.271 185.387H152.298V190.76H145.271V185.387ZM152.297 178.109H145.271V172.122H152.297V178.109ZM137.994 172.122V178.109H130.968V172.122H137.994ZM130.968 198.039H137.994V204.025H130.968V198.039ZM145.271 204.024V198.038H152.298V204.024H145.271Z" fill="#AB5436"/>
<path d="M210.028 164.845H184.369C181.549 164.845 179.254 167.139 179.254 169.959V206.188C179.254 209.008 181.549 211.302 184.369 211.302H210.028C212.847 211.302 215.141 209.008 215.141 206.188V169.959C215.141 167.139 212.847 164.845 210.028 164.845ZM186.533 185.387H193.56V190.76H186.533V185.387ZM200.837 185.387H207.864V190.76H200.837V185.387ZM207.863 178.109H200.836V172.122H207.863V178.109ZM193.559 172.122V178.109H186.532V172.122H193.559ZM186.533 198.039H193.56V204.025H186.533V198.039ZM200.837 204.024V198.038H207.864V204.024H200.837Z" fill="#AB5436"/>
<path d="M162.46 228.678H5.23145C3.22217 228.678 1.59326 230.307 1.59326 232.316C1.59326 234.326 3.22217 235.955 5.23145 235.955H167.006C164.615 235.955 162.657 232.752 162.46 228.678Z" fill="#AB5436"/>
<path d="M171.574 228.002C171.574 232.394 169.528 235.955 167.007 235.955C164.485 235.955 162.441 232.394 162.441 228.002C162.441 223.609 164.485 220.048 167.007 220.048C169.528 220.048 171.574 223.609 171.574 228.002Z" fill="#CB7C52"/>
<path d="M229.243 220.048C229.146 220.048 167.08 220.048 167.08 220.048C167.067 220.048 167.055 220.051 167.042 220.051C169.548 220.084 171.574 223.629 171.574 228.002C171.574 232.373 169.548 235.918 167.042 235.952C167.055 235.952 167.067 235.955 167.08 235.955C167.08 235.955 229.146 235.955 229.243 235.955C231.934 235.955 234.114 232.394 234.114 228.002C234.114 223.609 231.934 220.048 229.243 220.048Z" fill="#CB7C52"/>
<path d="M241.133 206.458C241.035 206.458 177.003 206.458 177.003 206.458C176.99 206.458 176.977 206.461 176.964 206.461C179.549 206.496 181.638 210.152 181.638 214.665C181.638 219.173 179.549 222.832 176.964 222.866C176.977 222.866 176.99 222.869 177.003 222.869C177.003 222.869 241.035 222.869 241.133 222.869C243.909 222.869 246.158 219.195 246.158 214.665C246.158 210.131 243.909 206.458 241.133 206.458Z" fill="#CB7C52"/>
<path d="M181.638 214.664C181.638 219.194 179.53 222.869 176.928 222.869C174.326 222.869 172.216 219.194 172.216 214.664C172.216 210.131 174.326 206.458 176.928 206.458C179.53 206.458 181.638 210.131 181.638 214.664Z" fill="#AB5436"/>
<path d="M244.975 219.543C244.877 219.543 180.845 219.543 180.845 219.543C180.832 219.543 180.819 219.546 180.807 219.547C183.392 219.581 185.482 223.24 185.482 227.75C185.482 232.26 183.392 235.918 180.807 235.952C180.819 235.953 180.832 235.956 180.845 235.956C180.845 235.956 244.877 235.956 244.975 235.956C247.751 235.956 250 232.282 250 227.75C250 223.219 247.751 219.543 244.975 219.543Z" fill="#CB7C52"/>
<path d="M180.771 235.956C183.374 235.956 185.483 232.282 185.483 227.75C185.483 223.219 183.374 219.545 180.771 219.545C178.169 219.545 176.06 223.219 176.06 227.75C176.06 232.282 178.169 235.956 180.771 235.956Z" fill="#CB7C52"/>
<path d="M45.0147 70.0059H29.5337C27.4971 70.0059 25.8462 68.3545 25.8462 66.3179C25.8462 64.2808 27.4971 62.6299 29.5337 62.6299H45.0147C47.3535 62.6299 49.2568 60.7261 49.2568 58.3867C49.2568 56.0474 47.3535 54.144 45.0147 54.144H40.8608C38.8242 54.144 37.1733 52.4936 37.1733 50.4565C37.1733 48.4199 38.8242 46.769 40.8608 46.769H45.0147C51.4194 46.769 56.6299 51.981 56.6299 58.3867C56.6299 64.793 51.4194 70.0059 45.0147 70.0059Z" fill="#ABCCD3"/>
<path d="M27.6455 54.1436H19.7163C13.311 54.1436 8.1001 48.9316 8.1001 42.5254C8.1001 36.1182 13.311 30.9063 19.7163 30.9063H51.8105C54.1499 30.9063 56.0527 29.0034 56.0527 26.6631C56.0527 24.3232 54.1504 22.4194 51.8105 22.4194H43.8809C41.8437 22.4194 40.1938 20.7686 40.1938 18.7319C40.1938 16.6948 41.8437 15.0439 43.8809 15.0439H51.8101C58.2148 15.0439 63.4263 20.2563 63.4263 26.6631C63.4263 33.0693 58.2148 38.2817 51.8101 38.2817H19.7163C17.377 38.2817 15.4736 40.1855 15.4736 42.5254C15.4736 44.8652 17.377 46.769 19.7163 46.769H27.6455C29.6821 46.769 31.3325 48.4199 31.3325 50.4565C31.3325 52.4932 29.6821 54.1436 27.6455 54.1436Z" fill="#E6E9ED"/>
<path d="M71.2315 204.932C69.1943 204.932 67.5444 203.281 67.5444 201.244V195.835C67.5444 193.799 69.1943 192.148 71.2315 192.148C73.2676 192.148 74.9185 193.799 74.9185 195.835V201.244C74.9185 203.281 73.2676 204.932 71.2315 204.932Z" fill="#AB5436"/>
</svg>
